STARTFONT 2.1
COMMENT
COMMENT Converted from OpenType font "Exo-SemiBold.ttf" by "otf2bdf3\otf2bdf 3.0".
COMMENT
FONT -FreeType-Exo SemiBold-Medium-R-Normal--9-60-112-112-P-49-ISO10646-1
SIZE 6 112 112
FONTBOUNDINGBOX 12 13 0 -3
STARTPROPERTIES 19
FOUNDRY "FreeType"
FAMILY_NAME "Exo SemiBold"
WEIGHT_NAME "Medium"
SLANT "R"
SETWIDTH_NAME "Normal"
ADD_STYLE_NAME ""
PIXEL_SIZE 9
POINT_SIZE 60
RESOLUTION_X 112
RESOLUTION_Y 112
SPACING "P"
AVERAGE_WIDTH 49
CHARSET_REGISTRY "ISO10646"
CHARSET_ENCODING "1"
FONT_ASCENT 9
FONT_DESCENT 2
COPYRIGHT "Copyright 2017 The Exo Project Authors (https://github.com/NDISCOVER/Exo-1.0)"
_OTF_FONTFILE "Exo-SemiBold.ttf"
_OTF_PSNAME "Exo-SemiBold"
ENDPROPERTIES
CHARS 190
STARTCHAR 0020
ENCODING 32
SWIDTH 214 0
DWIDTH 2 0
BBX 0 0 0 0
BITMAP
ENDCHAR
STARTCHAR 0021
ENCODING 33
SWIDTH 321 0
DWIDTH 3 0
BBX 1 7 1 0
BITMAP
80
80
80
80
80
00
80
ENDCHAR
STARTCHAR 0022
ENCODING 34
SWIDTH 321 0
DWIDTH 3 0
BBX 3 2 0 5
BITMAP
A0
A0
ENDCHAR
STARTCHAR 0023
ENCODING 35
SWIDTH 750 0
DWIDTH 7 0
BBX 6 7 0 0
BITMAP
28
28
FC
28
FC
50
50
ENDCHAR
STARTCHAR 0024
ENCODING 36
SWIDTH 642 0
DWIDTH 6 0
BBX 5 9 0 -1
BITMAP
20
78
C0
C0
78
08
08
78
20
ENDCHAR
STARTCHAR 0025
ENCODING 37
SWIDTH 964 0
DWIDTH 9 0
BBX 9 7 0 0
BITMAP
7200
9400
9400
6B00
1480
1480
2700
ENDCHAR
STARTCHAR 0026
ENCODING 38
SWIDTH 642 0
DWIDTH 6 0
BBX 6 7 0 0
BITMAP
38
40
60
64
D4
D8
7C
ENDCHAR
STARTCHAR 0027
ENCODING 39
SWIDTH 214 0
DWIDTH 2 0
BBX 1 2 0 5
BITMAP
80
80
ENDCHAR
STARTCHAR 0028
ENCODING 40
SWIDTH 321 0
DWIDTH 3 0
BBX 2 10 1 -2
BITMAP
40
C0
80
80
80
80
80
80
C0
40
ENDCHAR
STARTCHAR 0029
ENCODING 41
SWIDTH 321 0
DWIDTH 3 0
BBX 3 10 0 -2
BITMAP
C0
40
60
20
20
20
20
40
40
C0
ENDCHAR
STARTCHAR 002A
ENCODING 42
SWIDTH 428 0
DWIDTH 4 0
BBX 4 3 0 4
BITMAP
40
F0
60
ENDCHAR
STARTCHAR 002B
ENCODING 43
SWIDTH 642 0
DWIDTH 6 0
BBX 4 4 1 1
BITMAP
40
F0
40
40
ENDCHAR
STARTCHAR 002C
ENCODING 44
SWIDTH 214 0
DWIDTH 2 0
BBX 1 2 1 -1
BITMAP
80
80
ENDCHAR
STARTCHAR 002D
ENCODING 45
SWIDTH 321 0
DWIDTH 3 0
BBX 3 1 0 2
BITMAP
E0
ENDCHAR
STARTCHAR 002E
ENCODING 46
SWIDTH 214 0
DWIDTH 2 0
BBX 1 1 1 0
BITMAP
80
ENDCHAR
STARTCHAR 002F
ENCODING 47
SWIDTH 428 0
DWIDTH 4 0
BBX 4 8 0 -1
BITMAP
10
20
20
20
40
40
40
80
ENDCHAR
STARTCHAR 0030
ENCODING 48
SWIDTH 642 0
DWIDTH 6 0
BBX 4 7 1 0
BITMAP
F0
90
90
90
90
90
F0
ENDCHAR
STARTCHAR 0031
ENCODING 49
SWIDTH 321 0
DWIDTH 3 0
BBX 3 7 0 0
BITMAP
E0
20
20
20
20
20
20
ENDCHAR
STARTCHAR 0032
ENCODING 50
SWIDTH 642 0
DWIDTH 6 0
BBX 5 7 0 0
BITMAP
70
08
08
10
20
40
F8
ENDCHAR
STARTCHAR 0033
ENCODING 51
SWIDTH 535 0
DWIDTH 5 0
BBX 5 7 0 0
BITMAP
70
08
08
70
08
08
F8
ENDCHAR
STARTCHAR 0034
ENCODING 52
SWIDTH 642 0
DWIDTH 6 0
BBX 6 7 0 0
BITMAP
30
20
68
48
FC
08
08
ENDCHAR
STARTCHAR 0035
ENCODING 53
SWIDTH 642 0
DWIDTH 6 0
BBX 4 7 1 0
BITMAP
F0
80
80
F0
10
10
F0
ENDCHAR
STARTCHAR 0036
ENCODING 54
SWIDTH 642 0
DWIDTH 6 0
BBX 4 7 1 0
BITMAP
70
80
80
F0
90
90
F0
ENDCHAR
STARTCHAR 0037
ENCODING 55
SWIDTH 535 0
DWIDTH 5 0
BBX 5 7 0 0
BITMAP
F8
18
10
10
20
20
60
ENDCHAR
STARTCHAR 0038
ENCODING 56
SWIDTH 642 0
DWIDTH 6 0
BBX 4 7 1 0
BITMAP
F0
90
90
F0
90
90
F0
ENDCHAR
STARTCHAR 0039
ENCODING 57
SWIDTH 642 0
DWIDTH 6 0
BBX 5 7 0 0
BITMAP
70
48
C8
78
08
08
70
ENDCHAR
STARTCHAR 003A
ENCODING 58
SWIDTH 214 0
DWIDTH 2 0
BBX 1 5 1 0
BITMAP
80
00
00
00
80
ENDCHAR
STARTCHAR 003B
ENCODING 59
SWIDTH 214 0
DWIDTH 2 0
BBX 1 6 1 -1
BITMAP
80
00
00
00
80
80
ENDCHAR
STARTCHAR 003C
ENCODING 60
SWIDTH 642 0
DWIDTH 6 0
BBX 4 4 1 1
BITMAP
30
C0
70
10
ENDCHAR
STARTCHAR 003D
ENCODING 61
SWIDTH 642 0
DWIDTH 6 0
BBX 4 3 1 2
BITMAP
F0
00
F0
ENDCHAR
STARTCHAR 003E
ENCODING 62
SWIDTH 642 0
DWIDTH 6 0
BBX 4 4 1 1
BITMAP
C0
30
E0
80
ENDCHAR
STARTCHAR 003F
ENCODING 63
SWIDTH 535 0
DWIDTH 5 0
BBX 4 7 0 0
BITMAP
70
90
10
70
40
00
40
ENDCHAR
STARTCHAR 0040
ENCODING 64
SWIDTH 857 0
DWIDTH 8 0
BBX 7 9 1 -2
BITMAP
7C
04
FA
8A
FA
CA
FA
84
78
ENDCHAR
STARTCHAR 0041
ENCODING 65
SWIDTH 642 0
DWIDTH 6 0
BBX 6 7 0 0
BITMAP
30
30
28
48
78
4C
C4
ENDCHAR
STARTCHAR 0042
ENCODING 66
SWIDTH 642 0
DWIDTH 6 0
BBX 4 7 1 0
BITMAP
F0
90
90
E0
90
90
F0
ENDCHAR
STARTCHAR 0043
ENCODING 67
SWIDTH 535 0
DWIDTH 5 0
BBX 5 7 0 0
BITMAP
78
40
40
C0
40
40
78
ENDCHAR
STARTCHAR 0044
ENCODING 68
SWIDTH 642 0
DWIDTH 6 0
BBX 5 7 1 0
BITMAP
F0
98
88
88
88
98
F0
ENDCHAR
STARTCHAR 0045
ENCODING 69
SWIDTH 642 0
DWIDTH 6 0
BBX 4 7 1 0
BITMAP
F0
80
80
F0
80
80
F0
ENDCHAR
STARTCHAR 0046
ENCODING 70
SWIDTH 535 0
DWIDTH 5 0
BBX 4 7 1 0
BITMAP
F0
80
80
F0
80
80
80
ENDCHAR
STARTCHAR 0047
ENCODING 71
SWIDTH 642 0
DWIDTH 6 0
BBX 6 7 0 0
BITMAP
78
40
40
DC
4C
4C
7C
ENDCHAR
STARTCHAR 0048
ENCODING 72
SWIDTH 750 0
DWIDTH 7 0
BBX 5 7 1 0
BITMAP
88
88
88
F8
88
88
88
ENDCHAR
STARTCHAR 0049
ENCODING 73
SWIDTH 214 0
DWIDTH 2 0
BBX 1 7 1 0
BITMAP
80
80
80
80
80
80
80
ENDCHAR
STARTCHAR 004A
ENCODING 74
SWIDTH 428 0
DWIDTH 4 0
BBX 3 7 0 0
BITMAP
20
20
20
20
20
20
E0
ENDCHAR
STARTCHAR 004B
ENCODING 75
SWIDTH 642 0
DWIDTH 6 0
BBX 5 7 1 0
BITMAP
98
90
A0
E0
A0
90
98
ENDCHAR
STARTCHAR 004C
ENCODING 76
SWIDTH 535 0
DWIDTH 5 0
BBX 4 7 1 0
BITMAP
80
80
80
80
80
80
F0
ENDCHAR
STARTCHAR 004D
ENCODING 77
SWIDTH 857 0
DWIDTH 8 0
BBX 8 7 0 0
BITMAP
42
66
66
66
5A
5A
DB
ENDCHAR
STARTCHAR 004E
ENCODING 78
SWIDTH 750 0
DWIDTH 7 0
BBX 5 7 1 0
BITMAP
88
C8
C8
A8
A8
98
88
ENDCHAR
STARTCHAR 004F
ENCODING 79
SWIDTH 642 0
DWIDTH 6 0
BBX 6 7 0 0
BITMAP
78
4C
44
C4
44
44
78
ENDCHAR
STARTCHAR 0050
ENCODING 80
SWIDTH 642 0
DWIDTH 6 0
BBX 4 7 1 0
BITMAP
F0
90
90
90
F0
80
80
ENDCHAR
STARTCHAR 0051
ENCODING 81
SWIDTH 642 0
DWIDTH 6 0
BBX 6 9 0 -2
BITMAP
78
4C
44
C4
44
44
78
10
08
ENDCHAR
STARTCHAR 0052
ENCODING 82
SWIDTH 642 0
DWIDTH 6 0
BBX 5 7 1 0
BITMAP
F0
90
90
F0
A0
90
98
ENDCHAR
STARTCHAR 0053
ENCODING 83
SWIDTH 535 0
DWIDTH 5 0
BBX 5 7 0 0
BITMAP
78
C0
C0
78
08
08
78
ENDCHAR
STARTCHAR 0054
ENCODING 84
SWIDTH 535 0
DWIDTH 5 0
BBX 5 7 0 0
BITMAP
F8
20
20
20
20
20
20
ENDCHAR
STARTCHAR 0055
ENCODING 85
SWIDTH 642 0
DWIDTH 6 0
BBX 5 7 1 0
BITMAP
88
88
88
88
88
88
F0
ENDCHAR
STARTCHAR 0056
ENCODING 86
SWIDTH 642 0
DWIDTH 6 0
BBX 6 7 0 0
BITMAP
C4
44
48
48
28
30
30
ENDCHAR
STARTCHAR 0057
ENCODING 87
SWIDTH 964 0
DWIDTH 9 0
BBX 9 7 0 0
BITMAP
8880
4D80
5500
5500
5500
3300
2200
ENDCHAR
STARTCHAR 0058
ENCODING 88
SWIDTH 642 0
DWIDTH 6 0
BBX 6 7 0 0
BITMAP
CC
48
30
30
30
48
CC
ENDCHAR
STARTCHAR 0059
ENCODING 89
SWIDTH 642 0
DWIDTH 6 0
BBX 6 7 0 0
BITMAP
CC
48
58
30
30
20
20
ENDCHAR
STARTCHAR 005A
ENCODING 90
SWIDTH 535 0
DWIDTH 5 0
BBX 5 7 0 0
BITMAP
F8
18
10
20
60
40
F8
ENDCHAR
STARTCHAR 005B
ENCODING 91
SWIDTH 321 0
DWIDTH 3 0
BBX 2 10 1 -2
BITMAP
C0
80
80
80
80
80
80
80
80
C0
ENDCHAR
STARTCHAR 005C
ENCODING 92
SWIDTH 428 0
DWIDTH 4 0
BBX 4 8 0 -1
BITMAP
C0
40
40
60
20
20
30
10
ENDCHAR
STARTCHAR 005D
ENCODING 93
SWIDTH 321 0
DWIDTH 3 0
BBX 2 10 0 -2
BITMAP
C0
40
40
40
40
40
40
40
40
C0
ENDCHAR
STARTCHAR 005E
ENCODING 94
SWIDTH 428 0
DWIDTH 4 0
BBX 3 1 0 5
BITMAP
E0
ENDCHAR
STARTCHAR 005F
ENCODING 95
SWIDTH 642 0
DWIDTH 6 0
BBX 6 1 0 -2
BITMAP
FC
ENDCHAR
STARTCHAR 0060
ENCODING 96
SWIDTH 214 0
DWIDTH 2 0
BBX 2 1 0 6
BITMAP
C0
ENDCHAR
STARTCHAR 0061
ENCODING 97
SWIDTH 535 0
DWIDTH 5 0
BBX 5 5 0 0
BITMAP
70
18
78
D8
78
ENDCHAR
STARTCHAR 0062
ENCODING 98
SWIDTH 535 0
DWIDTH 5 0
BBX 4 7 1 0
BITMAP
80
80
F0
90
90
90
F0
ENDCHAR
STARTCHAR 0063
ENCODING 99
SWIDTH 535 0
DWIDTH 5 0
BBX 4 5 0 0
BITMAP
70
40
C0
40
70
ENDCHAR
STARTCHAR 0064
ENCODING 100
SWIDTH 535 0
DWIDTH 5 0
BBX 5 7 0 0
BITMAP
08
08
78
C8
C8
C8
78
ENDCHAR
STARTCHAR 0065
ENCODING 101
SWIDTH 535 0
DWIDTH 5 0
BBX 5 5 0 0
BITMAP
70
C8
F0
C0
70
ENDCHAR
STARTCHAR 0066
ENCODING 102
SWIDTH 428 0
DWIDTH 4 0
BBX 4 7 0 0
BITMAP
70
40
E0
40
40
40
40
ENDCHAR
STARTCHAR 0067
ENCODING 103
SWIDTH 535 0
DWIDTH 5 0
BBX 5 7 0 -2
BITMAP
78
C8
78
40
F8
88
F8
ENDCHAR
STARTCHAR 0068
ENCODING 104
SWIDTH 642 0
DWIDTH 6 0
BBX 4 7 1 0
BITMAP
80
80
F0
90
90
90
90
ENDCHAR
STARTCHAR 0069
ENCODING 105
SWIDTH 214 0
DWIDTH 2 0
BBX 1 7 1 0
BITMAP
80
00
80
80
80
80
80
ENDCHAR
STARTCHAR 006A
ENCODING 106
SWIDTH 214 0
DWIDTH 2 0
BBX 1 9 1 -2
BITMAP
80
00
80
80
80
80
80
80
80
ENDCHAR
STARTCHAR 006B
ENCODING 107
SWIDTH 535 0
DWIDTH 5 0
BBX 4 7 1 0
BITMAP
80
80
B0
A0
C0
A0
B0
ENDCHAR
STARTCHAR 006C
ENCODING 108
SWIDTH 321 0
DWIDTH 3 0
BBX 2 7 1 0
BITMAP
80
80
80
80
80
80
C0
ENDCHAR
STARTCHAR 006D
ENCODING 109
SWIDTH 964 0
DWIDTH 9 0
BBX 7 5 1 0
BITMAP
FE
92
92
92
92
ENDCHAR
STARTCHAR 006E
ENCODING 110
SWIDTH 642 0
DWIDTH 6 0
BBX 4 5 1 0
BITMAP
F0
90
90
90
90
ENDCHAR
STARTCHAR 006F
ENCODING 111
SWIDTH 535 0
DWIDTH 5 0
BBX 5 5 0 0
BITMAP
70
C8
C8
48
70
ENDCHAR
STARTCHAR 0070
ENCODING 112
SWIDTH 535 0
DWIDTH 5 0
BBX 4 7 1 -2
BITMAP
E0
90
90
90
F0
80
80
ENDCHAR
STARTCHAR 0071
ENCODING 113
SWIDTH 535 0
DWIDTH 5 0
BBX 5 7 0 -2
BITMAP
78
48
C8
C8
78
08
08
ENDCHAR
STARTCHAR 0072
ENCODING 114
SWIDTH 428 0
DWIDTH 4 0
BBX 3 5 1 0
BITMAP
E0
80
80
80
80
ENDCHAR
STARTCHAR 0073
ENCODING 115
SWIDTH 535 0
DWIDTH 5 0
BBX 4 5 0 0
BITMAP
70
80
70
10
F0
ENDCHAR
STARTCHAR 0074
ENCODING 116
SWIDTH 428 0
DWIDTH 4 0
BBX 3 6 0 0
BITMAP
40
E0
40
40
40
60
ENDCHAR
STARTCHAR 0075
ENCODING 117
SWIDTH 642 0
DWIDTH 6 0
BBX 4 5 1 0
BITMAP
90
90
90
90
F0
ENDCHAR
STARTCHAR 0076
ENCODING 118
SWIDTH 535 0
DWIDTH 5 0
BBX 5 5 0 0
BITMAP
88
50
50
50
20
ENDCHAR
STARTCHAR 0077
ENCODING 119
SWIDTH 857 0
DWIDTH 8 0
BBX 7 5 0 0
BITMAP
92
5A
5A
6A
64
ENDCHAR
STARTCHAR 0078
ENCODING 120
SWIDTH 535 0
DWIDTH 5 0
BBX 5 5 0 0
BITMAP
D8
50
20
50
D8
ENDCHAR
STARTCHAR 0079
ENCODING 121
SWIDTH 535 0
DWIDTH 5 0
BBX 5 7 0 -2
BITMAP
88
48
50
50
30
10
20
ENDCHAR
STARTCHAR 007A
ENCODING 122
SWIDTH 535 0
DWIDTH 5 0
BBX 4 5 0 0
BITMAP
F0
10
20
40
F0
ENDCHAR
STARTCHAR 007B
ENCODING 123
SWIDTH 321 0
DWIDTH 3 0
BBX 3 10 0 -2
BITMAP
60
40
40
40
C0
40
40
40
40
60
ENDCHAR
STARTCHAR 007C
ENCODING 124
SWIDTH 214 0
DWIDTH 2 0
BBX 1 8 1 -1
BITMAP
80
80
80
80
80
80
80
80
ENDCHAR
STARTCHAR 007D
ENCODING 125
SWIDTH 321 0
DWIDTH 3 0
BBX 3 10 0 -2
BITMAP
C0
40
40
40
60
40
40
40
40
C0
ENDCHAR
STARTCHAR 007E
ENCODING 126
SWIDTH 428 0
DWIDTH 4 0
BBX 4 1 0 5
BITMAP
F0
ENDCHAR
STARTCHAR 00A1
ENCODING 161
SWIDTH 321 0
DWIDTH 3 0
BBX 1 7 1 -2
BITMAP
80
00
80
80
80
80
80
ENDCHAR
STARTCHAR 00A2
ENCODING 162
SWIDTH 535 0
DWIDTH 5 0
BBX 4 7 0 -1
BITMAP
20
70
C0
80
C0
70
20
ENDCHAR
STARTCHAR 00A3
ENCODING 163
SWIDTH 642 0
DWIDTH 6 0
BBX 4 7 1 0
BITMAP
70
40
C0
E0
C0
C0
F0
ENDCHAR
STARTCHAR 00A4
ENCODING 164
SWIDTH 642 0
DWIDTH 6 0
BBX 4 5 1 1
BITMAP
90
F0
90
E0
90
ENDCHAR
STARTCHAR 00A5
ENCODING 165
SWIDTH 642 0
DWIDTH 6 0
BBX 5 7 0 0
BITMAP
88
48
50
30
78
78
20
ENDCHAR
STARTCHAR 00A6
ENCODING 166
SWIDTH 214 0
DWIDTH 2 0
BBX 1 8 1 -1
BITMAP
80
80
80
00
00
80
80
80
ENDCHAR
STARTCHAR 00A7
ENCODING 167
SWIDTH 535 0
DWIDTH 5 0
BBX 5 7 0 0
BITMAP
70
40
78
C8
70
18
70
ENDCHAR
STARTCHAR 00A8
ENCODING 168
SWIDTH 428 0
DWIDTH 4 0
BBX 2 1 1 6
BITMAP
C0
ENDCHAR
STARTCHAR 00A9
ENCODING 169
SWIDTH 857 0
DWIDTH 8 0
BBX 7 7 0 0
BITMAP
3C
5A
A2
A2
A2
5A
7C
ENDCHAR
STARTCHAR 00AA
ENCODING 170
SWIDTH 428 0
DWIDTH 4 0
BBX 4 5 0 2
BITMAP
E0
60
A0
50
F0
ENDCHAR
STARTCHAR 00AB
ENCODING 171
SWIDTH 642 0
DWIDTH 6 0
BBX 5 4 0 1
BITMAP
28
48
D0
28
ENDCHAR
STARTCHAR 00AC
ENCODING 172
SWIDTH 642 0
DWIDTH 6 0
BBX 4 3 1 2
BITMAP
F0
10
10
ENDCHAR
STARTCHAR 00AD
ENCODING 173
SWIDTH 321 0
DWIDTH 3 0
BBX 3 1 0 2
BITMAP
E0
ENDCHAR
STARTCHAR 00AE
ENCODING 174
SWIDTH 857 0
DWIDTH 8 0
BBX 7 7 0 0
BITMAP
3C
52
AA
BA
AA
66
7C
ENDCHAR
STARTCHAR 00AF
ENCODING 175
SWIDTH 321 0
DWIDTH 3 0
BBX 3 1 0 6
BITMAP
E0
ENDCHAR
STARTCHAR 00B0
ENCODING 176
SWIDTH 321 0
DWIDTH 3 0
BBX 3 2 0 5
BITMAP
E0
E0
ENDCHAR
STARTCHAR 00B1
ENCODING 177
SWIDTH 642 0
DWIDTH 6 0
BBX 4 5 1 1
BITMAP
40
F0
40
40
F0
ENDCHAR
STARTCHAR 00B2
ENCODING 178
SWIDTH 428 0
DWIDTH 4 0
BBX 4 5 0 3
BITMAP
60
10
30
20
F0
ENDCHAR
STARTCHAR 00B3
ENCODING 179
SWIDTH 428 0
DWIDTH 4 0
BBX 4 5 0 3
BITMAP
E0
10
70
10
F0
ENDCHAR
STARTCHAR 00B4
ENCODING 180
SWIDTH 214 0
DWIDTH 2 0
BBX 2 1 0 6
BITMAP
C0
ENDCHAR
STARTCHAR 00B5
ENCODING 181
SWIDTH 642 0
DWIDTH 6 0
BBX 4 8 1 -3
BITMAP
90
90
90
90
F0
80
80
80
ENDCHAR
STARTCHAR 00B6
ENCODING 182
SWIDTH 535 0
DWIDTH 5 0
BBX 5 10 0 -3
BITMAP
78
A8
A8
E8
28
28
28
20
20
20
ENDCHAR
STARTCHAR 00B7
ENCODING 183
SWIDTH 214 0
DWIDTH 2 0
BBX 1 1 1 3
BITMAP
80
ENDCHAR
STARTCHAR 00B8
ENCODING 184
SWIDTH 214 0
DWIDTH 2 0
BBX 2 2 0 -2
BITMAP
C0
C0
ENDCHAR
STARTCHAR 00B9
ENCODING 185
SWIDTH 428 0
DWIDTH 4 0
BBX 3 5 1 3
BITMAP
C0
40
40
40
E0
ENDCHAR
STARTCHAR 00BA
ENCODING 186
SWIDTH 428 0
DWIDTH 4 0
BBX 4 5 0 2
BITMAP
60
90
90
60
F0
ENDCHAR
STARTCHAR 00BB
ENCODING 187
SWIDTH 642 0
DWIDTH 6 0
BBX 5 4 0 1
BITMAP
90
50
28
D0
ENDCHAR
STARTCHAR 00BC
ENCODING 188
SWIDTH 1285 0
DWIDTH 12 0
BBX 11 8 1 0
BITMAP
C000
4200
4400
4480
E880
0940
11E0
1040
ENDCHAR
STARTCHAR 00BD
ENCODING 189
SWIDTH 1285 0
DWIDTH 12 0
BBX 10 8 1 0
BITMAP
C000
4200
4400
45C0
E840
0840
1080
11C0
ENDCHAR
STARTCHAR 00BE
ENCODING 190
SWIDTH 1285 0
DWIDTH 12 0
BBX 12 8 0 0
BITMAP
6000
1100
7200
1240
F440
04A0
08F0
0820
ENDCHAR
STARTCHAR 00BF
ENCODING 191
SWIDTH 535 0
DWIDTH 5 0
BBX 4 7 1 -2
BITMAP
20
00
20
C0
80
90
E0
ENDCHAR
STARTCHAR 00C0
ENCODING 192
SWIDTH 642 0
DWIDTH 6 0
BBX 6 9 0 0
BITMAP
20
10
30
30
28
48
78
4C
C4
ENDCHAR
STARTCHAR 00C1
ENCODING 193
SWIDTH 642 0
DWIDTH 6 0
BBX 6 9 0 0
BITMAP
18
00
30
30
28
48
78
4C
C4
ENDCHAR
STARTCHAR 00C2
ENCODING 194
SWIDTH 642 0
DWIDTH 6 0
BBX 6 9 0 0
BITMAP
30
08
30
30
28
48
78
4C
C4
ENDCHAR
STARTCHAR 00C3
ENCODING 195
SWIDTH 642 0
DWIDTH 6 0
BBX 6 9 0 0
BITMAP
78
00
30
30
28
48
78
4C
C4
ENDCHAR
STARTCHAR 00C4
ENCODING 196
SWIDTH 642 0
DWIDTH 6 0
BBX 6 9 0 0
BITMAP
28
28
30
30
28
48
78
4C
C4
ENDCHAR
STARTCHAR 00C5
ENCODING 197
SWIDTH 642 0
DWIDTH 6 0
BBX 6 10 0 0
BITMAP
10
30
10
30
30
28
48
78
4C
C4
ENDCHAR
STARTCHAR 00C6
ENCODING 198
SWIDTH 964 0
DWIDTH 9 0
BBX 9 7 0 0
BITMAP
0F80
1800
1800
2F00
3800
4800
C780
ENDCHAR
STARTCHAR 00C7
ENCODING 199
SWIDTH 535 0
DWIDTH 5 0
BBX 5 9 0 -2
BITMAP
78
40
40
C0
40
40
78
20
30
ENDCHAR
STARTCHAR 00C8
ENCODING 200
SWIDTH 642 0
DWIDTH 6 0
BBX 4 9 1 0
BITMAP
40
00
F0
80
80
F0
80
80
F0
ENDCHAR
STARTCHAR 00C9
ENCODING 201
SWIDTH 642 0
DWIDTH 6 0
BBX 4 9 1 0
BITMAP
20
00
F0
80
80
F0
80
80
F0
ENDCHAR
STARTCHAR 00CA
ENCODING 202
SWIDTH 642 0
DWIDTH 6 0
BBX 4 9 1 0
BITMAP
60
80
F0
80
80
F0
80
80
F0
ENDCHAR
STARTCHAR 00CB
ENCODING 203
SWIDTH 642 0
DWIDTH 6 0
BBX 4 9 1 0
BITMAP
A0
A0
F0
80
80
F0
80
80
F0
ENDCHAR
STARTCHAR 00CC
ENCODING 204
SWIDTH 214 0
DWIDTH 2 0
BBX 2 9 0 0
BITMAP
C0
00
40
40
40
40
40
40
40
ENDCHAR
STARTCHAR 00CD
ENCODING 205
SWIDTH 214 0
DWIDTH 2 0
BBX 2 9 1 0
BITMAP
C0
00
80
80
80
80
80
80
80
ENDCHAR
STARTCHAR 00CE
ENCODING 206
SWIDTH 214 0
DWIDTH 2 0
BBX 3 9 0 0
BITMAP
C0
20
40
40
40
40
40
40
40
ENDCHAR
STARTCHAR 00CF
ENCODING 207
SWIDTH 214 0
DWIDTH 2 0
BBX 3 9 0 0
BITMAP
A0
A0
40
40
40
40
40
40
40
ENDCHAR
STARTCHAR 00D0
ENCODING 208
SWIDTH 642 0
DWIDTH 6 0
BBX 6 7 0 0
BITMAP
78
4C
44
E4
44
4C
78
ENDCHAR
STARTCHAR 00D1
ENCODING 209
SWIDTH 750 0
DWIDTH 7 0
BBX 5 9 1 0
BITMAP
70
80
88
C8
C8
A8
A8
98
88
ENDCHAR
STARTCHAR 00D2
ENCODING 210
SWIDTH 642 0
DWIDTH 6 0
BBX 6 9 0 0
BITMAP
30
00
78
4C
44
C4
44
44
78
ENDCHAR
STARTCHAR 00D3
ENCODING 211
SWIDTH 642 0
DWIDTH 6 0
BBX 6 9 0 0
BITMAP
18
00
78
4C
44
C4
44
44
78
ENDCHAR
STARTCHAR 00D4
ENCODING 212
SWIDTH 642 0
DWIDTH 6 0
BBX 6 9 0 0
BITMAP
30
08
78
4C
44
C4
44
44
78
ENDCHAR
STARTCHAR 00D5
ENCODING 213
SWIDTH 642 0
DWIDTH 6 0
BBX 6 9 0 0
BITMAP
38
00
78
4C
44
C4
44
44
78
ENDCHAR
STARTCHAR 00D6
ENCODING 214
SWIDTH 642 0
DWIDTH 6 0
BBX 6 9 0 0
BITMAP
28
28
78
4C
44
C4
44
44
78
ENDCHAR
STARTCHAR 00D7
ENCODING 215
SWIDTH 642 0
DWIDTH 6 0
BBX 4 3 1 2
BITMAP
B0
60
F0
ENDCHAR
STARTCHAR 00D8
ENCODING 216
SWIDTH 642 0
DWIDTH 6 0
BBX 6 7 0 0
BITMAP
7C
4C
54
D4
64
44
78
ENDCHAR
STARTCHAR 00D9
ENCODING 217
SWIDTH 642 0
DWIDTH 6 0
BBX 5 9 1 0
BITMAP
40
20
88
88
88
88
88
88
F0
ENDCHAR
STARTCHAR 00DA
ENCODING 218
SWIDTH 642 0
DWIDTH 6 0
BBX 5 9 1 0
BITMAP
30
00
88
88
88
88
88
88
F0
ENDCHAR
STARTCHAR 00DB
ENCODING 219
SWIDTH 642 0
DWIDTH 6 0
BBX 5 9 1 0
BITMAP
60
10
88
88
88
88
88
88
F0
ENDCHAR
STARTCHAR 00DC
ENCODING 220
SWIDTH 642 0
DWIDTH 6 0
BBX 5 9 1 0
BITMAP
50
50
88
88
88
88
88
88
F0
ENDCHAR
STARTCHAR 00DD
ENCODING 221
SWIDTH 642 0
DWIDTH 6 0
BBX 6 9 0 0
BITMAP
10
00
CC
48
58
30
30
20
20
ENDCHAR
STARTCHAR 00DE
ENCODING 222
SWIDTH 535 0
DWIDTH 5 0
BBX 4 7 1 0
BITMAP
80
E0
90
90
90
E0
80
ENDCHAR
STARTCHAR 00DF
ENCODING 223
SWIDTH 642 0
DWIDTH 6 0
BBX 5 7 0 0
BITMAP
78
48
D8
D0
D8
C8
F8
ENDCHAR
STARTCHAR 00E0
ENCODING 224
SWIDTH 535 0
DWIDTH 5 0
BBX 5 7 0 0
BITMAP
60
00
70
18
78
D8
78
ENDCHAR
STARTCHAR 00E1
ENCODING 225
SWIDTH 535 0
DWIDTH 5 0
BBX 5 7 0 0
BITMAP
30
00
70
18
78
D8
78
ENDCHAR
STARTCHAR 00E2
ENCODING 226
SWIDTH 535 0
DWIDTH 5 0
BBX 5 7 0 0
BITMAP
70
00
70
18
78
D8
78
ENDCHAR
STARTCHAR 00E3
ENCODING 227
SWIDTH 535 0
DWIDTH 5 0
BBX 5 7 0 0
BITMAP
70
00
70
18
78
D8
78
ENDCHAR
STARTCHAR 00E4
ENCODING 228
SWIDTH 535 0
DWIDTH 5 0
BBX 5 7 0 0
BITMAP
50
00
70
18
78
D8
78
ENDCHAR
STARTCHAR 00E5
ENCODING 229
SWIDTH 535 0
DWIDTH 5 0
BBX 5 8 0 0
BITMAP
20
50
20
70
18
78
D8
78
ENDCHAR
STARTCHAR 00E6
ENCODING 230
SWIDTH 857 0
DWIDTH 8 0
BBX 8 5 0 0
BITMAP
7E
19
7E
D8
6E
ENDCHAR
STARTCHAR 00E7
ENCODING 231
SWIDTH 535 0
DWIDTH 5 0
BBX 4 7 0 -2
BITMAP
70
40
C0
40
70
20
20
ENDCHAR
STARTCHAR 00E8
ENCODING 232
SWIDTH 535 0
DWIDTH 5 0
BBX 5 7 0 0
BITMAP
60
00
70
C8
F0
C0
70
ENDCHAR
STARTCHAR 00E9
ENCODING 233
SWIDTH 535 0
DWIDTH 5 0
BBX 5 7 0 0
BITMAP
30
00
70
C8
F0
C0
70
ENDCHAR
STARTCHAR 00EA
ENCODING 234
SWIDTH 535 0
DWIDTH 5 0
BBX 5 7 0 0
BITMAP
70
00
70
C8
F0
C0
70
ENDCHAR
STARTCHAR 00EB
ENCODING 235
SWIDTH 535 0
DWIDTH 5 0
BBX 5 7 0 0
BITMAP
50
00
70
C8
F0
C0
70
ENDCHAR
STARTCHAR 00EC
ENCODING 236
SWIDTH 214 0
DWIDTH 2 0
BBX 2 7 0 0
BITMAP
C0
00
40
40
40
40
40
ENDCHAR
STARTCHAR 00ED
ENCODING 237
SWIDTH 214 0
DWIDTH 2 0
BBX 2 7 1 0
BITMAP
C0
00
80
80
80
80
80
ENDCHAR
STARTCHAR 00EE
ENCODING 238
SWIDTH 214 0
DWIDTH 2 0
BBX 3 7 0 0
BITMAP
C0
20
40
40
40
40
40
ENDCHAR
STARTCHAR 00EF
ENCODING 239
SWIDTH 214 0
DWIDTH 2 0
BBX 2 7 0 0
BITMAP
C0
00
40
40
40
40
40
ENDCHAR
STARTCHAR 00F0
ENCODING 240
SWIDTH 535 0
DWIDTH 5 0
BBX 5 7 0 0
BITMAP
78
50
78
48
C8
C8
70
ENDCHAR
STARTCHAR 00F1
ENCODING 241
SWIDTH 642 0
DWIDTH 6 0
BBX 4 7 1 0
BITMAP
F0
00
F0
90
90
90
90
ENDCHAR
STARTCHAR 00F2
ENCODING 242
SWIDTH 535 0
DWIDTH 5 0
BBX 5 7 0 0
BITMAP
60
00
70
C8
C8
48
70
ENDCHAR
STARTCHAR 00F3
ENCODING 243
SWIDTH 535 0
DWIDTH 5 0
BBX 5 7 0 0
BITMAP
30
00
70
C8
C8
48
70
ENDCHAR
STARTCHAR 00F4
ENCODING 244
SWIDTH 535 0
DWIDTH 5 0
BBX 5 7 0 0
BITMAP
70
00
70
C8
C8
48
70
ENDCHAR
STARTCHAR 00F5
ENCODING 245
SWIDTH 535 0
DWIDTH 5 0
BBX 5 7 0 0
BITMAP
70
00
70
C8
C8
48
70
ENDCHAR
STARTCHAR 00F6
ENCODING 246
SWIDTH 535 0
DWIDTH 5 0
BBX 5 7 0 0
BITMAP
50
00
70
C8
C8
48
70
ENDCHAR
STARTCHAR 00F7
ENCODING 247
SWIDTH 642 0
DWIDTH 6 0
BBX 4 5 1 1
BITMAP
40
00
F0
00
40
ENDCHAR
STARTCHAR 00F8
ENCODING 248
SWIDTH 535 0
DWIDTH 5 0
BBX 5 5 0 0
BITMAP
78
D8
E8
48
F0
ENDCHAR
STARTCHAR 00F9
ENCODING 249
SWIDTH 642 0
DWIDTH 6 0
BBX 4 7 1 0
BITMAP
C0
00
90
90
90
90
F0
ENDCHAR
STARTCHAR 00FA
ENCODING 250
SWIDTH 642 0
DWIDTH 6 0
BBX 4 7 1 0
BITMAP
60
00
90
90
90
90
F0
ENDCHAR
STARTCHAR 00FB
ENCODING 251
SWIDTH 642 0
DWIDTH 6 0
BBX 4 7 1 0
BITMAP
E0
00
90
90
90
90
F0
ENDCHAR
STARTCHAR 00FC
ENCODING 252
SWIDTH 642 0
DWIDTH 6 0
BBX 4 7 1 0
BITMAP
A0
00
90
90
90
90
F0
ENDCHAR
STARTCHAR 00FD
ENCODING 253
SWIDTH 535 0
DWIDTH 5 0
BBX 5 9 0 -2
BITMAP
30
00
88
48
50
50
30
10
20
ENDCHAR
STARTCHAR 00FE
ENCODING 254
SWIDTH 535 0
DWIDTH 5 0
BBX 4 9 1 -2
BITMAP
80
80
E0
90
90
90
F0
80
80
ENDCHAR
STARTCHAR 00FF
ENCODING 255
SWIDTH 535 0
DWIDTH 5 0
BBX 5 9 0 -2
BITMAP
50
00
88
48
50
50
30
10
20
ENDCHAR
ENDFONT
